<svg width="96" height="96" xmlns="http://www.w3.org/2000/svg" xmlns:xlink="http://www.w3.org/1999/xlink" xml:space="preserve" overflow="hidden"><g transform="translate(-804 -544)"><path d="M883 608.96C882.89 606.052 881.544 603.33 879.3 601.478 876.165 598.817 871.868 596.527 865.868 594.301 867.976 594.072 870.043 593.557 872.012 592.771 872.012 592.771 869.751 591.418 868.349 585.881 867.46 582.402 870.862 573.704 870.891 567.581 870.891 562.681 869.499 560.488 866.871 558.999 865.353 558.139 861.855 558.932 861.855 558.932 861.855 558.932 860.047 555.507 854 553.622 849.028 552.268 843.722 552.946 839.25 555.507 835.51 557.923 833.702 560.58 833.615 569.723 833.538 578.101 834.688 585.543 834.157 589.051 833.912 590.993 833.173 592.84 832.011 594.415 833.851 594.569 835.698 594.609 837.543 594.534 831.864 596.688 827.743 598.91 824.716 601.478 822.461 603.339 821.112 606.078 821.011 609L821.019 626.57 821.909 627.164C827.409 630.831 841.241 631.7 846.932 631.903L849.5 632 842.943 601.7C845.881 602.592 848.938 603.031 852.009 603 855.078 603.03 858.134 602.592 861.071 601.7L854.507 632.01 857.064 631.931C862.93 631.751 877.12 630.921 882.211 627.102L883.011 626.502ZM840.009 577 840.009 571.941C840.497 571.912 840.982 571.853 841.463 571.766 844.818 571.324 848.092 570.403 851.185 569.031 854.662 567.283 856.656 566.425 859.541 563.812 859.922 563.438 860.534 563.444 860.909 563.825 861.05 563.969 861.143 564.154 861.174 564.354 861.404 565.943 862.002 569.442 862.798 570.838 863.157 571.524 863.562 572.185 864.01 572.817L864.01 577C864.003 583.624 858.634 588.993 852.01 589L852.01 589C845.385 588.993 840.016 583.625 840.009 577ZM852.009 599C848.578 599.099 845.168 598.425 842.033 597.027L842.9 596.671C844.778 595.904 846.004 594.076 846 592.047L846 591.822C849.848 593.393 854.158 593.393 858.006 591.822L858.006 592.044C858.001 594.073 859.227 595.903 861.106 596.67L861.977 597.028C858.844 598.424 855.438 599.098 852.009 599Z"/></g></svg>